# xmcd
#
# Track frame offsets: 
#        150
#        22272
#        41703
#        63424
#        83977
#        108388
#        128836
#        150450
#        167241
#        188642
#        213705
#        230784
#        248889
#        271116
#        287577
#
# Disc length: 4209 seconds
#
# Revision: 0
# Processed by: cddbd v1.5.2PL0 Copyright (c) Steve Scherf et al.
# Submitted via: ExactAudioCopy v0.99pb3
#
DISCID=d9106f0f
DTITLE=Mauriizio Pugno Featuring Sugar Ray Norcia - That's What I Foun
DTITLE=d Out!
DYEAR=2008
DGENRE=Blues
TTITLE0=Opening Act
TTITLE1=That Crazy Girl Of Mine
TTITLE2=Bite The Dust
TTITLE3=Keep On Sailin'
TTITLE4=When My Father Met Charlie's Uncle
TTITLE5=It Must Be You
TTITLE6=That's What I Found Out!
TTITLE7=A Mind To Give Up
TTITLE8=I Love You Baby
TTITLE9=Take It All Back Baby
TTITLE10=Oh Louise!
TTITLE11=Fine Long Legs
TTITLE12=Black Angel
TTITLE13=I Love The Life I Live
TTITLE14=The Preacher
EXTD=
EXTT0=
EXTT1=
EXTT2=
EXTT3=
EXTT4=
EXTT5=
EXTT6=
EXTT7=
EXTT8=
EXTT9=
EXTT10=
EXTT11=
EXTT12=
EXTT13=
EXTT14=
PLAYORDER=
